<?xml version="1.0" encoding="UTF-8" standalone="no"?>
<!DOCTYPE svg PUBLIC "-//W3C//DTD SVG 1.1//EN" "http://www.w3.org/Graphics/SVG/1.1/DTD/svg11.dtd">
<svg width="100%" height="100%" viewBox="0 0 2481 3508" version="1.1" xmlns="http://www.w3.org/2000/svg" xmlns:xlink="http://www.w3.org/1999/xlink" xml:space="preserve" xmlns:serif="http://www.serif.com/" style="fill-rule:evenodd;clip-rule:evenodd;stroke-linejoin:round;stroke-miterlimit:2;">
    <g transform="matrix(0.707107,0.707107,-0.707107,0.707107,1544.52,-1262.46)">
        <g transform="matrix(600,0,0,600,448.819,2125.98)">
            <path d="M0.072,-0.716L0.336,-0.716C0.396,-0.716 0.441,-0.711 0.473,-0.702C0.515,-0.69 0.551,-0.668 0.581,-0.636C0.611,-0.605 0.633,-0.566 0.649,-0.52C0.665,-0.475 0.672,-0.418 0.672,-0.351C0.672,-0.292 0.665,-0.241 0.65,-0.199C0.632,-0.147 0.607,-0.104 0.574,-0.072C0.549,-0.048 0.515,-0.029 0.472,-0.015C0.44,-0.005 0.398,-0 0.344,-0L0.072,-0L0.072,-0.716ZM0.217,-0.595L0.217,-0.121L0.325,-0.121C0.365,-0.121 0.394,-0.123 0.412,-0.127C0.436,-0.133 0.455,-0.143 0.47,-0.157C0.486,-0.171 0.499,-0.194 0.508,-0.226C0.518,-0.258 0.523,-0.302 0.523,-0.357C0.523,-0.413 0.518,-0.455 0.508,-0.485C0.499,-0.514 0.485,-0.538 0.467,-0.554C0.45,-0.571 0.427,-0.582 0.4,-0.588C0.38,-0.592 0.341,-0.595 0.282,-0.595L0.217,-0.595Z" style="fill:rgb(255,0,0);fill-opacity:0.3;fill-rule:nonzero;"/>
        </g>
        <g transform="matrix(600,0,0,600,882.12,2125.98)">
            <path d="M0.073,-0L0.073,-0.716L0.377,-0.716C0.454,-0.716 0.51,-0.709 0.544,-0.697C0.579,-0.684 0.607,-0.661 0.627,-0.628C0.648,-0.595 0.659,-0.557 0.659,-0.515C0.659,-0.461 0.643,-0.417 0.611,-0.382C0.58,-0.347 0.533,-0.325 0.47,-0.316C0.501,-0.298 0.527,-0.278 0.547,-0.256C0.567,-0.234 0.595,-0.195 0.629,-0.14L0.717,-0L0.544,-0L0.439,-0.156C0.402,-0.211 0.377,-0.247 0.363,-0.261C0.35,-0.275 0.335,-0.285 0.32,-0.291C0.305,-0.296 0.28,-0.299 0.247,-0.299L0.218,-0.299L0.218,-0L0.073,-0ZM0.218,-0.413L0.325,-0.413C0.394,-0.413 0.437,-0.416 0.455,-0.422C0.472,-0.428 0.485,-0.438 0.495,-0.452C0.505,-0.466 0.51,-0.484 0.51,-0.506C0.51,-0.53 0.503,-0.549 0.49,-0.564C0.478,-0.579 0.459,-0.588 0.436,-0.592C0.424,-0.594 0.389,-0.595 0.331,-0.595L0.218,-0.595L0.218,-0.413Z" style="fill:rgb(255,0,0);fill-opacity:0.3;fill-rule:nonzero;"/>
        </g>
        <g transform="matrix(600,0,0,600,1315.42,2125.98)">
            <path d="M0.718,-0L0.561,-0L0.499,-0.163L0.212,-0.163L0.153,-0L0,-0L0.279,-0.716L0.432,-0.716L0.718,-0ZM0.452,-0.283L0.354,-0.549L0.257,-0.283L0.452,-0.283Z" style="fill:rgb(255,0,0);fill-opacity:0.3;fill-rule:nonzero;"/>
        </g>
        <g transform="matrix(600,0,0,600,1748.72,2125.98)">
            <path d="M0.074,-0L0.074,-0.716L0.564,-0.716L0.564,-0.595L0.218,-0.595L0.218,-0.425L0.517,-0.425L0.517,-0.304L0.218,-0.304L0.218,-0L0.074,-0Z" style="fill:rgb(255,0,0);fill-opacity:0.3;fill-rule:nonzero;"/>
        </g>
        <g transform="matrix(600,0,0,600,2115.23,2125.98)">
            <path d="M0.234,-0L0.234,-0.595L0.021,-0.595L0.021,-0.716L0.59,-0.716L0.59,-0.595L0.378,-0.595L0.378,-0L0.234,-0Z" style="fill:rgb(255,0,0);fill-opacity:0.3;fill-rule:nonzero;"/>
        </g>
    </g>
    <g transform="matrix(0.707107,0.707107,-0.707107,0.707107,1544.52,63.1775)">
        <g transform="matrix(600,0,0,600,448.819,2125.98)">
            <path d="M0.072,-0.716L0.336,-0.716C0.396,-0.716 0.441,-0.711 0.473,-0.702C0.515,-0.69 0.551,-0.668 0.581,-0.636C0.611,-0.605 0.633,-0.566 0.649,-0.52C0.665,-0.475 0.672,-0.418 0.672,-0.351C0.672,-0.292 0.665,-0.241 0.65,-0.199C0.632,-0.147 0.607,-0.104 0.574,-0.072C0.549,-0.048 0.515,-0.029 0.472,-0.015C0.44,-0.005 0.398,-0 0.344,-0L0.072,-0L0.072,-0.716ZM0.217,-0.595L0.217,-0.121L0.325,-0.121C0.365,-0.121 0.394,-0.123 0.412,-0.127C0.436,-0.133 0.455,-0.143 0.47,-0.157C0.486,-0.171 0.499,-0.194 0.508,-0.226C0.518,-0.258 0.523,-0.302 0.523,-0.357C0.523,-0.413 0.518,-0.455 0.508,-0.485C0.499,-0.514 0.485,-0.538 0.467,-0.554C0.45,-0.571 0.427,-0.582 0.4,-0.588C0.38,-0.592 0.341,-0.595 0.282,-0.595L0.217,-0.595Z" style="fill:rgb(255,0,0);fill-opacity:0.3;fill-rule:nonzero;"/>
        </g>
        <g transform="matrix(600,0,0,600,882.12,2125.98)">
            <path d="M0.073,-0L0.073,-0.716L0.377,-0.716C0.454,-0.716 0.51,-0.709 0.544,-0.697C0.579,-0.684 0.607,-0.661 0.627,-0.628C0.648,-0.595 0.659,-0.557 0.659,-0.515C0.659,-0.461 0.643,-0.417 0.611,-0.382C0.58,-0.347 0.533,-0.325 0.47,-0.316C0.501,-0.298 0.527,-0.278 0.547,-0.256C0.567,-0.234 0.595,-0.195 0.629,-0.14L0.717,-0L0.544,-0L0.439,-0.156C0.402,-0.211 0.377,-0.247 0.363,-0.261C0.35,-0.275 0.335,-0.285 0.32,-0.291C0.305,-0.296 0.28,-0.299 0.247,-0.299L0.218,-0.299L0.218,-0L0.073,-0ZM0.218,-0.413L0.325,-0.413C0.394,-0.413 0.437,-0.416 0.455,-0.422C0.472,-0.428 0.485,-0.438 0.495,-0.452C0.505,-0.466 0.51,-0.484 0.51,-0.506C0.51,-0.53 0.503,-0.549 0.49,-0.564C0.478,-0.579 0.459,-0.588 0.436,-0.592C0.424,-0.594 0.389,-0.595 0.331,-0.595L0.218,-0.595L0.218,-0.413Z" style="fill:rgb(255,0,0);fill-opacity:0.3;fill-rule:nonzero;"/>
        </g>
        <g transform="matrix(600,0,0,600,1315.42,2125.98)">
            <path d="M0.718,-0L0.561,-0L0.499,-0.163L0.212,-0.163L0.153,-0L0,-0L0.279,-0.716L0.432,-0.716L0.718,-0ZM0.452,-0.283L0.354,-0.549L0.257,-0.283L0.452,-0.283Z" style="fill:rgb(255,0,0);fill-opacity:0.3;fill-rule:nonzero;"/>
        </g>
        <g transform="matrix(600,0,0,600,1748.72,2125.98)">
            <path d="M0.074,-0L0.074,-0.716L0.564,-0.716L0.564,-0.595L0.218,-0.595L0.218,-0.425L0.517,-0.425L0.517,-0.304L0.218,-0.304L0.218,-0L0.074,-0Z" style="fill:rgb(255,0,0);fill-opacity:0.3;fill-rule:nonzero;"/>
        </g>
        <g transform="matrix(600,0,0,600,2115.23,2125.98)">
            <path d="M0.234,-0L0.234,-0.595L0.021,-0.595L0.021,-0.716L0.59,-0.716L0.59,-0.595L0.378,-0.595L0.378,-0L0.234,-0Z" style="fill:rgb(255,0,0);fill-opacity:0.3;fill-rule:nonzero;"/>
        </g>
    </g>
</svg>
