<?xml version="1.0" encoding="UTF-8" standalone="no"?><!DOCTYPE svg PUBLIC "-//W3C//DTD SVG 1.1//EN" "http://www.w3.org/Graphics/SVG/1.1/DTD/svg11.dtd"><svg width="100%" height="100%" viewBox="0 0 72 22" version="1.1" xmlns="http://www.w3.org/2000/svg" xmlns:xlink="http://www.w3.org/1999/xlink" xml:space="preserve" xmlns:serif="http://www.serif.com/" style="fill-rule:evenodd;clip-rule:evenodd;stroke-linejoin:round;stroke-miterlimit:2;"><path d="M13.965,3.255l-5.01,0c-0.008,-0 -0.015,-0 -0.023,-0c-2.843,-0 -5.182,2.339 -5.182,5.182c-0,0.003 -0,0.005 0,0.008l0,5.01c0,2.843 2.339,5.183 5.182,5.183l5.011,-0c2.843,-0 5.182,-2.34 5.182,-5.183c0,-0.003 0,-0.005 0,-0.007l0,-5.003c0.004,-2.837 -2.323,-5.178 -5.16,-5.19Zm-5.063,5.603c-0.281,0.287 -0.668,0.449 -1.07,0.449c-0.823,-0 -1.5,-0.677 -1.5,-1.5c-0,-0.823 0.677,-1.5 1.5,-1.5c0.498,-0 0.964,0.248 1.243,0.661c0.398,0.588 0.325,1.382 -0.173,1.89Zm4.973,7.267c-1.44,0 -2.625,-1.185 -2.625,-2.625c-0,-1.44 1.185,-2.625 2.625,-2.625c1.44,0 2.625,1.185 2.625,2.625c-0,1.44 -1.185,2.625 -2.625,2.625Z" style="fill:#929292;fill-rule:nonzero;"/><g id="mark-2-path"></g><path id="Shape" d="M65.063,11.663c0.067,-1.272 -0.324,-2.526 -1.103,-3.533c-0.786,-0.9 -1.941,-1.394 -3.135,-1.343c-1.29,-0.021 -2.527,0.528 -3.375,1.5c-0.922,1.05 -1.408,2.414 -1.358,3.81c-0.08,1.384 0.359,2.748 1.23,3.825c0.873,0.957 2.127,1.477 3.421,1.418c1.228,0.055 2.442,-0.284 3.465,-0.967l0.232,-0.165l0,-2.813l-0.907,0.75c-0.689,0.569 -1.553,0.881 -2.445,0.885c-0.654,0.052 -1.298,-0.184 -1.763,-0.645c-0.34,-0.383 -0.552,-0.863 -0.608,-1.373l6.33,0l0.016,-1.35Zm-6.196,-1.027c0.119,-0.357 0.316,-0.683 0.578,-0.953c0.342,-0.367 0.825,-0.571 1.327,-0.562c0.462,-0.033 0.914,0.15 1.223,0.495c0.234,0.291 0.382,0.642 0.427,1.012l-3.555,0.008Z" style="fill:#929292;fill-rule:nonzero;"/><path id="Shape-2" d="M41.73,12.743c0.034,0.602 -0.159,1.196 -0.54,1.665c-0.324,0.385 -0.809,0.601 -1.313,0.585c-1.102,-0.001 -1.62,-0.668 -1.62,-2.251l0,-5.745l-2.557,0l0,5.94c0,2.843 1.297,4.396 3.75,4.396c0.808,0.023 1.6,-0.225 2.25,-0.705l0,0.494l2.565,0l0,-10.125l-2.535,0l0,5.745Z" style="fill:#929292;fill-rule:nonzero;"/><path id="Shape-3" d="M52.575,7.417l-0.052,0.113c-0.606,-0.461 -1.34,-0.723 -2.1,-0.75c-1.33,-0.052 -2.609,0.53 -3.443,1.568c-0.86,1.154 -1.293,2.574 -1.222,4.012c-0.065,1.299 0.343,2.578 1.147,3.6c0.769,0.921 1.921,1.439 3.12,1.402c0.943,-0.057 1.84,-0.426 2.55,-1.05c-0.075,1.875 -0.937,2.723 -2.737,2.723c-0.92,-0.022 -1.819,-0.281 -2.61,-0.75l-0.84,-0.473l-0,2.753l0.307,0.157c0.982,0.482 2.064,0.721 3.157,0.698c3.466,-0 5.251,-1.92 5.251,-5.543l-0,-8.917l-2.528,-0l0,0.457Zm0,5.1c0.033,0.671 -0.187,1.329 -0.615,1.845c-0.373,0.439 -0.924,0.687 -1.5,0.675c-0.583,0.033 -1.146,-0.225 -1.5,-0.69c-0.43,-0.598 -0.642,-1.326 -0.6,-2.062c-0.055,-0.843 0.169,-1.682 0.638,-2.385c0.386,-0.505 0.999,-0.787 1.635,-0.75c0.526,-0.015 1.034,0.202 1.387,0.592c0.387,0.401 0.593,0.944 0.57,1.5l-0.015,1.275Z" style="fill:#929292;fill-rule:nonzero;"/><path id="Shape-4" d="M30.697,6.787c-0.875,-0.02 -1.732,0.264 -2.422,0.803l0,-0.592l-2.565,-0l0,10.125l2.565,-0l0,-5.693c-0.026,-0.611 0.177,-1.211 0.57,-1.68c0.335,-0.406 0.839,-0.636 1.365,-0.623c1.043,0 1.5,0.675 1.5,2.303l0,5.693l2.603,-0l-0,-6.061c0.069,-1.111 -0.252,-2.212 -0.908,-3.112c-0.67,-0.79 -1.673,-1.221 -2.707,-1.163Z" style="fill:#929292;fill-rule:nonzero;"/><path id="Shape-5" d="M71.393,9.352l-0.001,-2.354l-2.249,-0l-0.001,-2.873l-2.579,0.825l-0,2.048l-1.553,-0l0,2.355l1.552,-0l0,4.762c0,2.055 1.028,3.203 2.925,3.203c0.562,0.021 1.119,-0.1 1.62,-0.353l0.293,-0.157l-0,-2.693l-0.9,0.652c-0.173,0.129 -0.385,0.195 -0.6,0.188c-0.315,0 -0.495,-0.067 -0.578,-0.172c-0.153,-0.29 -0.219,-0.619 -0.187,-0.946l-0,-4.5l2.257,0.015Z" style="fill:#929292;fill-rule:nonzero;"/><circle cx="2.063" cy="2.063" r="2.063" style="fill:#929292;"/></svg>