<svg xmlns="http://www.w3.org/2000/svg" width="800" height="469.317" viewBox="0 0 800 469.317" xmlns:xlink="http://www.w3.org/1999/xlink" role="img" artist="Katerina Limpitsouni" source="https://undraw.co/"><g transform="translate(-443.142 -257.876)"><path d="M898.247,664.1H371.155a30.276,30.276,0,0,1-30.241-30.241V352.525a30.276,30.276,0,0,1,30.241-30.241H898.247a30.276,30.276,0,0,1,30.241,30.241V633.862A30.276,30.276,0,0,1,898.247,664.1Z" transform="translate(308.867 25.517)" fill="#fff"/><path d="M557.334,341.82H30.241A30.276,30.276,0,0,1,0,311.578V30.241A30.276,30.276,0,0,1,30.241,0H557.334a30.276,30.276,0,0,1,30.241,30.241V311.578A30.276,30.276,0,0,1,557.334,341.82ZM30.241,1.833A28.441,28.441,0,0,0,1.833,30.241V311.578a28.441,28.441,0,0,0,28.409,28.409H557.334a28.441,28.441,0,0,0,28.409-28.409V30.241A28.441,28.441,0,0,0,557.334,1.833Z" transform="matrix(0.999, -0.035, 0.035, 0.999, 643.995, 358.158)" fill="#d6d6e3"/><path d="M754.171,630.2l-509.5-135.058a30.276,30.276,0,0,1-21.483-36.981L295.28,186.212a30.276,30.276,0,0,1,36.981-21.483l509.5,135.058a30.276,30.276,0,0,1,21.483,36.981L791.152,608.712A30.276,30.276,0,0,1,754.171,630.2Z" transform="translate(220.958 94.156)" fill="#f2f2f2"/><path d="M775.247,705.1H248.155a30.276,30.276,0,0,1-30.241-30.241V393.525a30.276,30.276,0,0,1,30.241-30.241H775.247a30.276,30.276,0,0,1,30.241,30.242V674.862A30.275,30.275,0,0,1,775.247,705.1Z" transform="translate(319.149 22.09)" fill="#fff"/><path d="M638.653,701.841H298.272c-.426,0-.852-.009-1.272-.033l160.985-90.663c3.065-1.762,9.943-2.382,15.361-1.385a13.912,13.912,0,0,1,4.26,1.385l108.041,60.842,5.176,2.911Z" transform="translate(312.538 1.526)" fill="#e6e6e6"/><path d="M760.145,704.279h-294.4l57.049-26.943L526.9,675.4l74.341-35.111c4.874-2.3,16.6-2.445,22.328-.434q.577.206,1.071.434Z" transform="translate(298.432 -0.912)" fill="#e6e6e6"/><path d="M248.322,365.284a28.441,28.441,0,0,0-28.409,28.409V675.03a28.441,28.441,0,0,0,28.409,28.409H775.415a28.441,28.441,0,0,0,28.409-28.409V393.693a28.441,28.441,0,0,0-28.409-28.409Z" transform="translate(318.982 21.923)" fill="#3f3d56"/><path d="M777.254,685.116H250.161a8.257,8.257,0,0,1-8.248-8.248V395.532a8.257,8.257,0,0,1,8.248-8.248H777.254a8.257,8.257,0,0,1,8.248,8.248V676.869a8.257,8.257,0,0,1-8.248,8.248Zm-527.092-296a6.422,6.422,0,0,0-6.415,6.415V676.869a6.422,6.422,0,0,0,6.415,6.415H777.254a6.422,6.422,0,0,0,6.415-6.415V395.532a6.422,6.422,0,0,0-6.415-6.415Z" transform="translate(317.143 20.083)" fill="#ccc"/><ellipse cx="71.849" cy="89.934" rx="71.849" ry="89.934" transform="translate(928.82 428.806)" fill="#f2f2f2"/><path d="M505.77,325.365h.2l3.553,203.7h-7.5Z" transform="translate(495.097 175.29)" fill="#ccc"/><path d="M736.239,636.154h0a1.776,1.776,0,0,1-.744,2.4l-10.3,5.425-1.655-3.144,10.3-5.425A1.776,1.776,0,0,1,736.239,636.154Z" transform="translate(276.882 -0.641)" fill="#ccc"/><ellipse cx="71.849" cy="89.934" rx="71.849" ry="89.934" transform="translate(722.256 428.806)" fill="#f2f2f2"/><path d="M510.532,627.307h0a1.777,1.777,0,0,0-2.4-.744l-7.194,3.788-2.464-141.27h-.2l-3.75,203.7h7.5l-1.02-58.456,8.78-4.622A1.777,1.777,0,0,0,510.532,627.307Z" transform="translate(296.026 11.574)" fill="#ccc"/><path d="M626.318,603.854a2.25,2.25,0,0,0-3.04-.943l-9.116,4.8-3.122-179h-.25l-4.752,258.115h9.5l-1.292-74.07,11.125-5.857a2.251,2.251,0,0,0,.943-3.04Z" transform="translate(286.704 16.621)" fill="#3f3d56"/><path d="M777.247,703.1H250.155a30.276,30.276,0,0,1-30.241-30.241V391.525a30.276,30.276,0,0,1,30.241-30.241H777.247a30.276,30.276,0,0,1,30.241,30.241V672.862A30.276,30.276,0,0,1,777.247,703.1Z" transform="translate(318.982 22.257)" fill="#fff"/><path d="M671.188,708.113h-370.8c-.464,0-.928-.01-1.386-.036l175.372-98.766c3.339-1.919,10.831-2.595,16.734-1.509a15.16,15.16,0,0,1,4.641,1.509l117.7,66.28,5.639,3.172Z" transform="translate(288.046 16.168)" fill="#f2f2f2"/><path d="M788.457,708.163H467.743l62.148-29.351,4.472-2.114,80.984-38.25c5.309-2.507,18.082-2.663,24.324-.473q.629.224,1.166.473Z" transform="translate(287.761 16.118)" fill="#f2f2f2"/><path d="M777.247,703.1H250.155a30.276,30.276,0,0,1-30.241-30.241V391.525a30.276,30.276,0,0,1,30.241-30.241H777.247a30.276,30.276,0,0,1,30.241,30.241V672.862A30.276,30.276,0,0,1,777.247,703.1ZM250.155,363.117a28.441,28.441,0,0,0-28.409,28.409V672.862a28.441,28.441,0,0,0,28.409,28.409H777.247a28.441,28.441,0,0,0,28.409-28.409V391.525a28.441,28.441,0,0,0-28.409-28.409Z" transform="translate(318.982 22.257)" fill="#3f3d56"/><g transform="translate(696.754 297.373)"><ellipse cx="61.798" cy="61.798" rx="61.798" ry="61.798" transform="translate(215.662 36.955)" fill="#ff6584"/><ellipse cx="78.271" cy="97.971" rx="78.271" ry="97.971" transform="translate(225.025 127.808)" fill="#e6e6e6"/><path d="M508.105,323.365h.215l3.87,221.909h-8.171Z" transform="translate(-204.593 -117.286)" fill="#ccc"/><path d="M739.374,634.239h0a1.935,1.935,0,0,1-.811,2.614l-11.226,5.91-1.8-3.425,11.226-5.91A1.935,1.935,0,0,1,739.374,634.239Z" transform="translate(-422.513 -281.249)" fill="#ccc"/><ellipse cx="78.271" cy="97.971" rx="78.271" ry="97.971" transform="translate(0 127.808)" fill="#e6e6e6"/><path d="M513.962,637.661h0a1.936,1.936,0,0,0-2.614-.811l-7.837,4.126-2.684-153.9h-.215l-4.085,221.91H504.7l-1.111-63.68,9.565-5.036A1.936,1.936,0,0,0,513.962,637.661Z" transform="translate(-422.126 -281.002)" fill="#ccc"/><path d="M612.666,280.653c54.774,0,99.294,103.207,99.294,171.768s-44.4,124.14-99.177,124.14-99.177-55.579-99.177-124.14S557.892,280.653,612.666,280.653Z" transform="translate(-422.155 -280.653)" fill="#6c63ff"/><path d="M630.131,617.508a2.452,2.452,0,0,0-3.312-1.027l-9.931,5.228-3.4-195h-.272L608.039,707.89h10.353l-1.408-80.69,12.119-6.38A2.452,2.452,0,0,0,630.131,617.508Z" transform="translate(-422.315 -280.9)" fill="#3f3d56"/></g></g></svg>